# xmcd
#
# Track frame offsets: 
#        150
#        15973
#        34653
#        53257
#        73841
#        92658
#        111188
#        135014
#        152073
#        176653
#        201241
#
# Disc length: 2870 seconds
#
# Revision: 1
# Processed by: cddbd v1.5.2PL0 Copyright (c) Steve Scherf et al.
# Submitted via: ExactAudioCopy v1.0b3
#
DISCID=800b340b
DTITLE=Inger Marie Gundersen - My Heart Would Have a Reason
DYEAR=2009
DGENRE=Jazz
TTITLE0=Some things never change
TTITLE1=I can see clearly now
TTITLE2=That´s all
TTITLE3=Something
TTITLE4=The road from yesterday
TTITLE5=Last first kiss
TTITLE6=The first time ever I saw your face
TTITLE7=I only want to be with you
TTITLE8=Turn your lights down low
TTITLE9=Why should I cry for you
TTITLE10=Even when
EXTD=YEAR: 2009
EXTT0=
EXTT1=
EXTT2=
EXTT3=
EXTT4=
EXTT5=
EXTT6=
EXTT7=
EXTT8=
EXTT9=
EXTT10=
PLAYORDER=
